<?xml version="1.0" standalone="no"?>
<!DOCTYPE svg PUBLIC "-//W3C//DTD SVG 20010904//EN"
 "http://www.w3.org/TR/2001/REC-SVG-20010904/DTD/svg10.dtd">
<svg version="1.0" xmlns="http://www.w3.org/2000/svg"
 width="450.000000pt" height="450.000000pt" viewBox="0 0 450.000000 450.000000"
 preserveAspectRatio="xMidYMid meet">
<metadata>
Created by potrace 1.11, written by Peter Selinger 2001-2013
</metadata>
<g transform="translate(0.000000,450.000000) scale(0.100000,-0.100000)"
fill="#000000" stroke="none">
<path d="M1905 4484 c-611 -109 -1101 -403 -1462 -879 -217 -286 -357 -616
-424 -999 -27 -156 -27 -556 0 -712 107 -610 414 -1110 901 -1470 274 -202
619 -345 994 -409 123 -21 549 -21 672 0 612 105 1107 401 1471 880 217 286
357 616 424 999 27 156 27 556 0 712 -107 610 -414 1110 -901 1470 -274 202
-619 345 -994 409 -119 20 -565 20 -681 -1z m617 -604 c524 -86 986 -432 1218
-915 247 -514 208 -1138 -100 -1610 -312 -476 -825 -756 -1390 -756 -565 0
-1078 280 -1390 756 -264 404 -334 931 -184 1397 163 509 562 909 1069 1071
259 83 504 101 777 57z"/>
<path d="M2016 3504 c-222 -40 -459 -158 -630 -315 l-59 -54 574 -6 c566 -5
575 -5 636 -28 206 -75 385 -287 439 -519 20 -86 20 -240 -1 -328 -9 -38 -34
-107 -57 -154 -33 -70 -56 -100 -127 -170 -47 -47 -107 -96 -133 -110 -27 -14
-48 -29 -48 -33 0 -15 363 -577 373 -577 17 0 133 98 196 165 166 178 285 414
326 649 20 115 20 337 0 452 -91 518 -511 938 -1029 1029 -111 19 -351 19
-460 -1z"/>
<path d="M1231 3018 c-115 -156 -203 -357 -236 -542 -20 -115 -20 -337 0 -452
91 -521 511 -939 1035 -1030 125 -21 399 -15 508 13 l73 18 -349 555 -350 555
232 5 c215 5 234 7 273 28 103 55 154 137 161 260 6 106 -12 156 -75 211 -87
78 -100 80 -560 87 l-408 7 -115 184 c-63 100 -118 183 -121 183 -3 0 -34 -37
-68 -82z"/>
</g>
</svg>
